{"title":"I Hate Love Storys (2010) 1 CD PDVD Rip Xvid MP3 Multi-Subs [Tik","uid":5670053,"size":740590958,"categoryP":"video","categoryS":"movies","magnet":"?xt=urn:btih:620b28bcc329ac6ae79f339973f03bfe5ee58329&amp;dn=I+Hate+Love+Storys+%282010%29+1+CD+PDVD+Rip+Xvid+MP3+Multi-Subs+%5BTik&amp;tr=udp%3A%2F%2Ftracker.openbittorrent.com%3A80&amp;tr=udp%3A%2F%2Fopen.demonii.com%3A1337&amp;tr=udp%3A%2F%2Ftracker.coppersurfer.tk%3A6969&amp;tr=udp%3A%2F%2Fexodus.desync.com%3A6969","seeders":1,"leechers":0,"uploader":"luvwithromio","files":-1,"time":1278307655,"description":"Format                           : AVI\nFormat/Info                      : Audio Video Interleave\nFile size                        : 698 MiB\nDuration                         : 2h 10mn\nOverall bit rate                 : 745 Kbps\n\nVideo\nID                               : 0\nFormat                           : MPEG-4 Visual\nFormat profile                   : Advanced Simple@L5\nFormat settings, BVOP            : Yes\nFormat settings, QPel            : No\nFormat settings, GMC             : No warppoints\nFormat settings, Matrix          : Default (H.263)\nCodec ID                         : XVID\nCodec ID/Hint                    : XviD\nDuration                         : 2h 10mn\nBit rate                         : 636 Kbps\nWidth                            : 640 pixels\nHeight                           : 272 pixels\nDisplay aspect ratio             : 2.35:1\nFrame rate                       : 23.976 fps\nResolution                       : 8 bits\nColorimetry                      : 4:2:0\nScan type                        : Progressive\nBits/(Pixel*Frame)               : 0.152\nStream size                      : 596 MiB (85%)\nWriting library                  : XviD 1.1.2 (UTC 2006-11-01)\n\nAudio\nID                               : 1\nFormat                           : MPEG Audio\nFormat version                   : Version 1\nFormat profile                   : Layer 3\nCodec ID                         : 55\nCodec ID/Hint                    : MP3\nDuration                         : 2h 10mn\nBit rate mode                    : Constant\nBit rate                         : 96.0 Kbps\nChannel(s)                       : 2 channels\nSampling rate                    : 48.0 KHz\nStream size                      : 89.9 MiB (13%)\nAlignment                        : Split accross interleaves\nInterleave, duration             : 24 ms (0.58 video frame)","torrent":{"xt":"urn:btih:620b28bcc329ac6ae79f339973f03bfe5ee58329","amp;dn":"I+Hate+Love+Storys+%282010%29+1+CD+PDVD+Rip+Xvid+MP3+Multi-Subs+%5BTik","amp;tr":["udp%3A%2F%2Ftracker.openbittorrent.com%3A80","udp%3A%2F%2Fopen.demonii.com%3A1337","udp%3A%2F%2Ftracker.coppersurfer.tk%3A6969","udp%3A%2F%2Fexodus.desync.com%3A6969"],"infoHash":"620b28bcc329ac6ae79f339973f03bfe5ee58329","infoHashBuffer":{"type":"Buffer","data":[98,11,40,188,195,41,172,106,231,159,51,153,115,240,59,254,94,229,131,41]},"announce":[],"urlList":[]}}